<svg xmlns="http://www.w3.org/2000/svg" width="108" height="108" viewBox="0 0 108 108">
  <defs>
    <radialGradient id="glow" gradientUnits="userSpaceOnUse" cx="54" cy="54" r="58">
      <stop offset="0" stop-color="#24173A"/>
      <stop offset="0.6" stop-color="#15122A"/>
      <stop offset="1" stop-color="#0E0F19"/>
    </radialGradient>
  </defs>
  <rect x="0" y="0" width="108" height="108" fill="#0E0F19"/>
  <rect x="0" y="0" width="108" height="108" fill="url(#glow)"/>
  <!-- cobweb -->
  <path d="M54 54 L54 -36 M54 54 L106.9 -18.81 M54 54 L131.94 9 M54 54 L143.51 63.41 M54 54 L131.94 99 M54 54 L90.61 136.22 M54 54 L54 144 M54 54 L1.1 126.81 M54 54 L-23.94 99 M54 54 L-35.51 44.59 M54 54 L-23.94 9 M54 54 L17.39 -28.22 M54 45 Q56.17 47.32 59.29 46.72 M59.29 46.72 Q59.22 49.3 61.79 49.5 M61.79 49.5 Q60.87 52.54 62.95 54.94 M62.95 54.94 Q60.68 56.17 61.79 58.5 M61.79 58.5 Q58.7 59.22 57.66 62.22 M57.66 62.22 Q55.46 60.87 54 63 M54 63 Q51.83 60.68 48.71 61.28 M48.71 61.28 Q48.78 58.7 46.21 58.5 M46.21 58.5 Q47.13 55.46 45.05 53.06 M45.05 53.06 Q47.32 51.83 46.21 49.5 M46.21 49.5 Q49.3 48.78 50.34 45.78 M50.34 45.78 Q52.54 47.13 54 45 M54 37 Q58.1 41.39 63.99 40.25 M63.99 40.25 Q63.85 45.13 68.72 45.5 M68.72 45.5 Q66.97 51.24 70.91 55.78 M70.91 55.78 Q66.61 58.1 68.72 62.5 M68.72 62.5 Q62.87 63.85 60.91 69.53 M60.91 69.53 Q56.76 66.97 54 71 M54 71 Q49.9 66.61 44.01 67.75 M44.01 67.75 Q44.15 62.87 39.28 62.5 M39.28 62.5 Q41.03 56.76 37.09 52.22 M37.09 52.22 Q41.39 49.9 39.28 45.5 M39.28 45.5 Q45.13 44.15 47.09 38.47 M47.09 38.47 Q51.24 41.03 54 37 M54 28.5 Q60.15 35.08 68.99 33.37 M68.99 33.37 Q68.78 40.69 76.08 41.25 M76.08 41.25 Q73.46 49.86 79.36 56.67 M79.36 56.67 Q72.92 60.15 76.08 66.75 M76.08 66.75 Q67.31 68.78 64.37 77.3 M64.37 77.3 Q58.14 73.46 54 79.5 M54 79.5 Q47.85 72.92 39.01 74.63 M39.01 74.63 Q39.22 67.31 31.92 66.75 M31.92 66.75 Q34.54 58.14 28.64 51.33 M28.64 51.33 Q35.08 47.85 31.92 41.25 M31.92 41.25 Q40.69 39.22 43.63 30.7 M43.63 30.7 Q49.86 34.54 54 28.5 M54 19.5 Q62.32 28.41 74.28 26.09 M74.28 26.09 Q74 35.99 83.88 36.75 M83.88 36.75 Q80.32 48.41 88.31 57.61 M88.31 57.61 Q79.59 62.32 83.88 71.25 M83.88 71.25 Q72.01 74 68.03 85.52 M68.03 85.52 Q59.59 80.32 54 88.5 M54 88.5 Q45.68 79.59 33.72 81.91 M33.72 81.91 Q34 72.01 24.12 71.25 M24.12 71.25 Q27.68 59.59 19.69 50.39 M19.69 50.39 Q28.41 45.68 24.12 36.75 M24.12 36.75 Q35.99 34 39.97 22.48 M39.97 22.48 Q48.41 27.68 54 19.5 M54 10 Q64.61 21.36 79.86 18.4 M79.86 18.4 Q79.5 31.04 92.11 32 M92.11 32 Q87.57 46.86 97.76 58.6 M97.76 58.6 Q86.64 64.61 92.11 76 M92.11 76 Q76.96 79.5 71.9 94.2 M71.9 94.2 Q61.14 87.57 54 98 M54 98 Q43.39 86.64 28.14 89.6 M28.14 89.6 Q28.5 76.96 15.89 76 M15.89 76 Q20.43 61.14 10.24 49.4 M10.24 49.4 Q21.36 43.39 15.89 32 M15.89 32 Q31.04 28.5 36.1 13.8 M36.1 13.8 Q46.86 20.43 54 10 M54 0 Q67.02 13.94 85.74 10.31 M85.74 10.31 Q85.3 25.82 100.77 27 M100.77 27 Q95.2 45.24 107.7 59.64 M107.7 59.64 Q94.06 67.02 100.77 81 M100.77 81 Q82.18 85.3 75.96 103.33 M75.96 103.33 Q62.76 95.2 54 108 M54 108 Q40.98 94.06 22.26 97.69 M22.26 97.69 Q22.7 82.18 7.23 81 M7.23 81 Q12.8 62.76 0.3 48.36 M0.3 48.36 Q13.94 40.98 7.23 27 M7.23 27 Q25.82 22.7 32.04 4.67 M32.04 4.67 Q45.24 12.8 54 0 M54 -11 Q69.67 5.78 92.21 1.41 M92.21 1.41 Q91.68 20.08 110.29 21.5 M110.29 21.5 Q103.59 43.46 118.64 60.79 M118.64 60.79 Q102.22 69.67 110.29 86.5 M110.29 86.5 Q87.92 91.68 80.44 113.38 M80.44 113.38 Q64.54 103.59 54 119 M54 119 Q38.33 102.22 15.79 106.59 M15.79 106.59 Q16.32 87.92 -2.29 86.5 M-2.29 86.5 Q4.41 64.54 -10.64 47.21 M-10.64 47.21 Q5.78 38.33 -2.29 21.5 M-2.29 21.5 Q20.08 16.32 27.56 -5.38 M27.56 -5.38 Q43.46 4.41 54 -11 M54 -23 Q72.56 -3.12 99.26 -8.29 M99.26 -8.29 Q98.63 13.81 120.68 15.5 M120.68 15.5 Q112.75 41.51 130.58 62.05 M130.58 62.05 Q111.12 72.56 120.68 92.5 M120.68 92.5 Q94.19 98.63 85.32 124.34 M85.32 124.34 Q66.49 112.75 54 131 M54 131 Q35.44 111.12 8.74 116.29 M8.74 116.29 Q9.37 94.19 -12.68 92.5 M-12.68 92.5 Q-4.75 66.49 -22.58 45.95 M-22.58 45.95 Q-3.12 35.44 -12.68 15.5 M-12.68 15.5 Q13.81 9.37 22.68 -16.34 M22.68 -16.34 Q41.51 -4.75 54 -23" fill="none" stroke="#4D4671" stroke-width="0.5" stroke-linecap="round"/>
  <!-- nodes on the web -->
  <circle cx="31.92" cy="41.25" r="1.25" fill="#9E78F0"/>
  <circle cx="74.28" cy="26.09" r="1.25" fill="#9E78F0"/>
  <circle cx="88.31" cy="57.61" r="1.25" fill="#FD7A1F"/>
  <circle cx="68.03" cy="85.52" r="1.25" fill="#4D4671"/>
  <circle cx="33.72" cy="81.91" r="1.25" fill="#FD7A1F"/>
  <circle cx="19.69" cy="50.39" r="1.25" fill="#9E78F0"/>
  <circle cx="39.97" cy="22.48" r="1.25" fill="#FD7A1F"/>
  <circle cx="54" cy="10" r="1.25" fill="#FD7A1F"/>
  <circle cx="92.11" cy="32" r="1.25" fill="#4D4671"/>
  <circle cx="92.11" cy="76" r="1.25" fill="#FD7A1F"/>
  <circle cx="54" cy="98" r="1.25" fill="#9E78F0"/>
  <circle cx="15.89" cy="76" r="1.25" fill="#FD7A1F"/>
  <circle cx="15.89" cy="32" r="1.25" fill="#4D4671"/>
  <circle cx="85.74" cy="10.31" r="1.25" fill="#4D4671"/>
  <circle cx="107.7" cy="59.64" r="1.25" fill="#FD7A1F"/>
  <circle cx="75.96" cy="103.33" r="1.25" fill="#9E78F0"/>
  <circle cx="22.26" cy="97.69" r="1.25" fill="#FD7A1F"/>
  <circle cx="0.3" cy="48.36" r="1.25" fill="#4D4671"/>
  <circle cx="32.04" cy="4.67" r="1.25" fill="#FD7A1F"/>
</svg>
