<svg width="1024" height="1024" viewBox="0 0 1024 1024" fill="none" xmlns="http://www.w3.org/2000/svg">
<defs>
<linearGradient id="paint0_linear_2_274" x1="674" y1="418" x2="619" y2="757.5" gradientUnits="userSpaceOnUse">
<stop stop-color="#FFB172"/>
<stop offset="1" stop-color="#FD610A"/>
</linearGradient>
</defs>
<ns0:path xmlns:ns0="http://www.w3.org/2000/svg" d="M768.735 169.327L767.258 171.938L627 92.6113L628.477 90L768.735 169.327Z" fill="#4D4671" />
<ns0:path xmlns:ns0="http://www.w3.org/2000/svg" d="M898.422 291.538L896.326 293.685L781 181.147L783.095 179L898.422 291.538Z" fill="#4D4671" />
<ns0:path xmlns:ns0="http://www.w3.org/2000/svg" d="M901.897 298L902.496 300.94L744.599 333.087L744 330.147L901.897 298Z" fill="#4D4671" />
<ns0:path xmlns:ns0="http://www.w3.org/2000/svg" d="M750.709 332.716L747.753 332.204L775.28 173.436L778.236 173.948L750.709 332.716Z" fill="#4D4671" />
<ns0:path xmlns:ns0="http://www.w3.org/2000/svg" d="M778.667 174.312L779.88 177.056L632.503 242.21L631.29 239.467L778.667 174.312Z" fill="#4D4671" />
<ns0:path xmlns:ns0="http://www.w3.org/2000/svg" d="M757.661 335.216L755.739 337.52L632 234.304L633.922 232L757.661 335.216Z" fill="#4D4671" />
<ns0:path xmlns:ns0="http://www.w3.org/2000/svg" d="M836.866 454.414L834.381 456.095L753.362 336.296L755.847 334.615L836.866 454.414Z" fill="#4D4671" />
<ns0:path xmlns:ns0="http://www.w3.org/2000/svg" d="M837.777 454.298L835 453.163L895.954 304L898.731 305.135L837.777 454.298Z" fill="#4D4671" />
<ns0:path xmlns:ns0="http://www.w3.org/2000/svg" d="M965.323 488.104L964.539 490.999L837.511 456.614L838.295 453.718L965.323 488.104Z" fill="#4D4671" />
<ns0:path xmlns:ns0="http://www.w3.org/2000/svg" d="M953.328 474.016L950.444 474.842L902 305.827L904.884 305L953.328 474.016Z" fill="#4D4671" />
<ns0:path xmlns:ns0="http://www.w3.org/2000/svg" d="M898.807 636.854L896 635.797L952.792 485L955.599 486.057L898.807 636.854Z" fill="#4D4671" />
<ns0:path xmlns:ns0="http://www.w3.org/2000/svg" d="M940.365 793.48L937.452 794.198L898.91 637.738L901.823 637.021L940.365 793.48Z" fill="#4D4671" />
<ns0:path xmlns:ns0="http://www.w3.org/2000/svg" d="M893.665 637L896.388 638.26L828.723 784.501L826 783.241L893.665 637Z" fill="#4D4671" />
<ns0:path xmlns:ns0="http://www.w3.org/2000/svg" d="M286.835 797.948L286.381 800.913L143 778.965L143.454 776L286.835 797.948Z" fill="#4D4671" />
<ns0:path xmlns:ns0="http://www.w3.org/2000/svg" d="M418.909 752.004L421.909 752.029L420.582 913.16L417.582 913.135L418.909 752.004Z" fill="#4D4671" />
<ns0:path xmlns:ns0="http://www.w3.org/2000/svg" d="M420.156 902.607L418.245 904.92L294 802.313L295.91 800L420.156 902.607Z" fill="#4D4671" />
<ns0:path xmlns:ns0="http://www.w3.org/2000/svg" d="M270.102 505L272.614 506.64L184.512 641.559L182 639.919L270.102 505Z" fill="#4D4671" />
<ns0:path xmlns:ns0="http://www.w3.org/2000/svg" d="M292.432 796.054L295.333 796.819L261.901 923.573L259 922.808L292.432 796.054Z" fill="#4D4671" />
<ns0:path xmlns:ns0="http://www.w3.org/2000/svg" d="M184.936 619.236L182.176 620.412L119 472.176L121.76 471L184.936 619.236Z" fill="#4D4671" />
<ns0:path xmlns:ns0="http://www.w3.org/2000/svg" d="M269.051 509.203L268.116 512.054L115 461.851L115.935 459L269.051 509.203Z" fill="#4D4671" />
<ns0:path xmlns:ns0="http://www.w3.org/2000/svg" d="M222.081 346.957L224.181 349.1L109.102 461.891L107.002 459.748L222.081 346.957Z" fill="#4D4671" />
<ns0:path xmlns:ns0="http://www.w3.org/2000/svg" d="M267.855 503.106L264.949 503.85L225 347.744L227.906 347L267.855 503.106Z" fill="#4D4671" />
<ns0:path xmlns:ns0="http://www.w3.org/2000/svg" d="M403.69 404.108L402.749 406.957L239 352.849L239.941 350L403.69 404.108Z" fill="#4D4671" />
<ns0:path xmlns:ns0="http://www.w3.org/2000/svg" d="M363.827 255L365.47 257.51L230.643 345.753L229 343.242L363.827 255Z" fill="#4D4671" />
<ns0:path xmlns:ns0="http://www.w3.org/2000/svg" d="M97 284.242L99.9902 284L112.99 444.611L109.999 444.854L97 284.242Z" fill="#4D4671" />
<ns0:path xmlns:ns0="http://www.w3.org/2000/svg" d="M229.077 344.698L227.612 347.316L87 268.618L88.4652 266L229.077 344.698Z" fill="#4D4671" />
<ns0:path xmlns:ns0="http://www.w3.org/2000/svg" d="M241.676 190.346L243.17 192.948L103.417 273.162L101.924 270.56L241.676 190.346Z" fill="#4D4671" />
<ns0:path xmlns:ns0="http://www.w3.org/2000/svg" d="M364.523 247.863L363.13 250.52L247 189.657L248.393 187L364.523 247.863Z" fill="#4D4671" />
<ns0:path xmlns:ns0="http://www.w3.org/2000/svg" d="M386.974 93L388.641 95.4943L254.667 185.026L253 182.532L386.974 93Z" fill="#4D4671" />
<ns0:path xmlns:ns0="http://www.w3.org/2000/svg" d="M620.211 87.2081L620.972 90.1099L465.111 131.005L464.35 128.103L620.211 87.2081Z" fill="#4D4671" />
<ns0:path xmlns:ns0="http://www.w3.org/2000/svg" d="M646.649 243.739L643.693 244.255L616 85.5156L618.955 85L646.649 243.739Z" fill="#4D4671" />
<ns0:path xmlns:ns0="http://www.w3.org/2000/svg" d="M373.975 251.159L371 250.769L391.949 91L394.924 91.39L373.975 251.159Z" fill="#4D4671" />
<ns0:path xmlns:ns0="http://www.w3.org/2000/svg" d="M373.4 254.725L371 252.926L467.66 124L470.061 125.8L373.4 254.725Z" fill="#4D4671" />
<ns0:path xmlns:ns0="http://www.w3.org/2000/svg" d="M615.384 82.0903L615.498 85.0882L404.114 93.1033L404 90.1055L615.384 82.0903Z" fill="#4D4671" />
<ns0:path xmlns:ns0="http://www.w3.org/2000/svg" d="M473.98 128.652L472.806 131.413L396 98.7609L397.174 96L473.98 128.652Z" fill="#4D4671" />
<ns0:path xmlns:ns0="http://www.w3.org/2000/svg" d="M243.511 190.758L246.486 191.141L225.944 350.963L222.969 350.58L243.511 190.758Z" fill="#4D4671" />
<ns0:path xmlns:ns0="http://www.w3.org/2000/svg" d="M416.731 410.338L413.839 411.136L371 255.798L373.892 255L416.731 410.338Z" fill="#4D4671" />
<ns0:path xmlns:ns0="http://www.w3.org/2000/svg" d="M107.34 470L110.164 471.012L55.8243 622.709L53 621.698L107.34 470Z" fill="#4D4671" />
<ns0:path xmlns:ns0="http://www.w3.org/2000/svg" d="M148.873 778.196L146 777.334L192.327 623L195.2 623.862L148.873 778.196Z" fill="#4D4671" />
<ns0:path xmlns:ns0="http://www.w3.org/2000/svg" d="M289.866 795.502L287.296 797.05L193 640.548L195.57 639L289.866 795.502Z" fill="#4D4671" />
<ns0:path xmlns:ns0="http://www.w3.org/2000/svg" d="M412.639 409L414.369 411.451L282.73 504.382L281 501.932L412.639 409Z" fill="#4D4671" />
<ns0:path xmlns:ns0="http://www.w3.org/2000/svg" d="M258.354 904.459L256.072 906.405L151.511 783.8L153.794 781.853L258.354 904.459Z" fill="#4D4671" />
<ns0:path xmlns:ns0="http://www.w3.org/2000/svg" d="M143.135 767.273L140.505 768.716L63 627.443L65.6302 626L143.135 767.273Z" fill="#4D4671" />
<ns0:path xmlns:ns0="http://www.w3.org/2000/svg" d="M184.947 632.788L184.421 635.742L62 613.954L62.5257 611L184.947 632.788Z" fill="#4D4671" />
<ns0:path xmlns:ns0="http://www.w3.org/2000/svg" d="M424.177 905.823L424.243 908.822L263.146 912.39L263.079 909.391L424.177 905.823Z" fill="#4D4671" />
<ns0:path xmlns:ns0="http://www.w3.org/2000/svg" d="M424.492 757L425.405 759.858L299.028 800.237L298.115 797.379L424.492 757Z" fill="#4D4671" />
<ns0:path xmlns:ns0="http://www.w3.org/2000/svg" d="M752.621 894L753.584 896.841L600.962 948.531L600 945.69L752.621 894Z" fill="#4D4671" />
<ns0:path xmlns:ns0="http://www.w3.org/2000/svg" d="M928.153 788.409L929.772 790.934L767.166 895.219L765.546 892.694L928.153 788.409Z" fill="#4D4671" />
<ns0:path xmlns:ns0="http://www.w3.org/2000/svg" d="M756.572 903.448L754 901.904L827.767 779L830.339 780.544L756.572 903.448Z" fill="#4D4671" />
<ns0:path xmlns:ns0="http://www.w3.org/2000/svg" d="M930.062 779.819L929.927 782.816L823 777.997L823.135 775L930.062 779.819Z" fill="#4D4671" />
<ns0:path xmlns:ns0="http://www.w3.org/2000/svg" d="M895.416 623.607L892.594 624.623L835.095 464.949L837.917 463.933L895.416 623.607Z" fill="#4D4671" />
<ns0:circle xmlns:ns0="http://www.w3.org/2000/svg" cx="394.5" cy="91.5" r="17.5" fill="#BC4343" />
<ns0:circle xmlns:ns0="http://www.w3.org/2000/svg" cx="394.5" cy="91.5" r="17.5" fill="#4D4671" />
<ns0:circle xmlns:ns0="http://www.w3.org/2000/svg" cx="616.5" cy="85.5" r="17.5" fill="#BC4343" />
<ns0:circle xmlns:ns0="http://www.w3.org/2000/svg" cx="616.5" cy="85.5" r="17.5" fill="#9E78F0" />
<ns0:circle xmlns:ns0="http://www.w3.org/2000/svg" cx="777.5" cy="175.5" r="17.5" fill="#BC4343" />
<ns0:circle xmlns:ns0="http://www.w3.org/2000/svg" cx="777.5" cy="175.5" r="17.5" fill="#4D4671" />
<ns0:circle xmlns:ns0="http://www.w3.org/2000/svg" cx="643.5" cy="243.5" r="17.5" fill="#BC4343" />
<ns0:circle xmlns:ns0="http://www.w3.org/2000/svg" cx="643.5" cy="243.5" r="17.5" fill="#4D4671" />
<ns0:circle xmlns:ns0="http://www.w3.org/2000/svg" cx="469.5" cy="126.5" r="17.5" fill="#BC4343" />
<ns0:circle xmlns:ns0="http://www.w3.org/2000/svg" cx="469.5" cy="126.5" r="17.5" fill="#9E78F0" />
<ns0:circle xmlns:ns0="http://www.w3.org/2000/svg" cx="750.5" cy="331.5" r="17.5" fill="#BC4343" />
<ns0:circle xmlns:ns0="http://www.w3.org/2000/svg" cx="750.5" cy="331.5" r="17.5" fill="#4D4671" />
<ns0:circle xmlns:ns0="http://www.w3.org/2000/svg" cx="901.5" cy="299.5" r="17.5" fill="#BC4343" />
<ns0:circle xmlns:ns0="http://www.w3.org/2000/svg" cx="901.5" cy="299.5" r="17.5" fill="#9E78F0" />
<ns0:circle xmlns:ns0="http://www.w3.org/2000/svg" cx="836.5" cy="457.5" r="17.5" fill="#BC4343" />
<ns0:circle xmlns:ns0="http://www.w3.org/2000/svg" cx="836.5" cy="457.5" r="17.5" fill="#9E78F0" />
<ns0:circle xmlns:ns0="http://www.w3.org/2000/svg" cx="956.5" cy="485.5" r="17.5" fill="#BC4343" />
<ns0:circle xmlns:ns0="http://www.w3.org/2000/svg" cx="956.5" cy="485.5" r="17.5" fill="#4D4671" />
<ns0:circle xmlns:ns0="http://www.w3.org/2000/svg" cx="898.5" cy="633.5" r="17.5" fill="#BC4343" />
<ns0:circle xmlns:ns0="http://www.w3.org/2000/svg" cx="898.5" cy="633.5" r="17.5" fill="#9E78F0" />
<ns0:circle xmlns:ns0="http://www.w3.org/2000/svg" cx="832.5" cy="776.5" r="17.5" fill="#BC4343" />
<ns0:circle xmlns:ns0="http://www.w3.org/2000/svg" cx="832.5" cy="776.5" r="17.5" fill="#4D4671" />
<ns0:circle xmlns:ns0="http://www.w3.org/2000/svg" cx="933.5" cy="781.5" r="17.5" fill="#BC4343" />
<ns0:circle xmlns:ns0="http://www.w3.org/2000/svg" cx="933.5" cy="781.5" r="17.5" fill="#4D4671" />
<ns0:circle xmlns:ns0="http://www.w3.org/2000/svg" cx="762.5" cy="891.5" r="17.5" fill="#BC4343" />
<ns0:circle xmlns:ns0="http://www.w3.org/2000/svg" cx="762.5" cy="891.5" r="17.5" fill="#9E78F0" />
<ns0:circle xmlns:ns0="http://www.w3.org/2000/svg" cx="600.5" cy="945.5" r="17.5" fill="#BC4343" />
<ns0:circle xmlns:ns0="http://www.w3.org/2000/svg" cx="600.5" cy="945.5" r="17.5" fill="#4D4671" />
<ns0:circle xmlns:ns0="http://www.w3.org/2000/svg" cx="419.5" cy="906.5" r="17.5" fill="#BC4343" />
<ns0:circle xmlns:ns0="http://www.w3.org/2000/svg" cx="419.5" cy="906.5" r="17.5" fill="#4D4671" />
<ns0:circle xmlns:ns0="http://www.w3.org/2000/svg" cx="419.5" cy="759.5" r="17.5" fill="#BC4343" />
<ns0:circle xmlns:ns0="http://www.w3.org/2000/svg" cx="419.5" cy="759.5" r="17.5" fill="#4D4671" />
<ns0:circle xmlns:ns0="http://www.w3.org/2000/svg" cx="293.5" cy="800.5" r="17.5" fill="#BC4343" />
<ns0:circle xmlns:ns0="http://www.w3.org/2000/svg" cx="293.5" cy="800.5" r="17.5" fill="#4D4671" />
<ns0:circle xmlns:ns0="http://www.w3.org/2000/svg" cx="263.5" cy="912.5" r="17.5" fill="#BC4343" />
<ns0:circle xmlns:ns0="http://www.w3.org/2000/svg" cx="263.5" cy="912.5" r="17.5" fill="#9E78F0" />
<ns0:circle xmlns:ns0="http://www.w3.org/2000/svg" cx="146.5" cy="778.5" r="17.5" fill="#BC4343" />
<ns0:circle xmlns:ns0="http://www.w3.org/2000/svg" cx="146.5" cy="778.5" r="17.5" fill="#4D4671" />
<ns0:circle xmlns:ns0="http://www.w3.org/2000/svg" cx="190.5" cy="633.5" r="17.5" fill="#BC4343" />
<ns0:circle xmlns:ns0="http://www.w3.org/2000/svg" cx="190.5" cy="633.5" r="17.5" fill="#9E78F0" />
<ns0:circle xmlns:ns0="http://www.w3.org/2000/svg" cx="60.5" cy="615.5" r="17.5" fill="#BC4343" />
<ns0:circle xmlns:ns0="http://www.w3.org/2000/svg" cx="60.5" cy="615.5" r="17.5" fill="#4D4671" />
<ns0:circle xmlns:ns0="http://www.w3.org/2000/svg" cx="114.5" cy="457.5" r="17.5" fill="#BC4343" />
<ns0:circle xmlns:ns0="http://www.w3.org/2000/svg" cx="114.5" cy="457.5" r="17.5" fill="#9E78F0" />
<ns0:circle xmlns:ns0="http://www.w3.org/2000/svg" cx="270.5" cy="512.5" r="17.5" fill="#BC4343" />
<ns0:circle xmlns:ns0="http://www.w3.org/2000/svg" cx="270.5" cy="512.5" r="17.5" fill="#4D4671" />
<ns0:circle xmlns:ns0="http://www.w3.org/2000/svg" cx="225.5" cy="346.5" r="17.5" fill="#BC4343" />
<ns0:circle xmlns:ns0="http://www.w3.org/2000/svg" cx="225.5" cy="346.5" r="17.5" fill="#9E78F0" />
<ns0:circle xmlns:ns0="http://www.w3.org/2000/svg" cx="97.5" cy="271.5" r="17.5" fill="#BC4343" />
<ns0:circle xmlns:ns0="http://www.w3.org/2000/svg" cx="97.5" cy="271.5" r="17.5" fill="#4D4671" />
<ns0:circle xmlns:ns0="http://www.w3.org/2000/svg" cx="246.5" cy="187.5" r="17.5" fill="#BC4343" />
<ns0:circle xmlns:ns0="http://www.w3.org/2000/svg" cx="246.5" cy="187.5" r="17.5" fill="#9E78F0" />
<ns0:circle xmlns:ns0="http://www.w3.org/2000/svg" cx="372.5" cy="253.5" r="17.5" fill="#BC4343" />
<ns0:circle xmlns:ns0="http://www.w3.org/2000/svg" cx="372.5" cy="253.5" r="17.5" fill="#4D4671" />
<ns0:circle xmlns:ns0="http://www.w3.org/2000/svg" cx="413.5" cy="404.5" r="17.5" fill="#BC4343" />
<ns0:circle xmlns:ns0="http://www.w3.org/2000/svg" cx="413.5" cy="404.5" r="17.5" fill="#4D4671" />
</svg>