<svg width="1024" height="1024" viewBox="0 0 1024 1024" fill="none" xmlns="http://www.w3.org/2000/svg">
<defs>
<linearGradient id="paint0_linear_2_274" x1="674" y1="418" x2="619" y2="757.5" gradientUnits="userSpaceOnUse">
<stop stop-color="#FFB172"/>
<stop offset="1" stop-color="#FD610A"/>
</linearGradient>
</defs>
<ns0:path xmlns:ns0="http://www.w3.org/2000/svg" d="M643 427.5C643 410 614.5 268 614.5 268C614.5 268 590.5 262 533 278.5C475.5 295 454.5 311.5 454.5 311.5L469.5 383.5C469.5 383.5 473 413 464 430C455 447 431.5 466.5 431.5 466.5C431.5 466.5 412.5 484.5 338.5 538.5C264.5 592.5 264 639 264 639C264 639 258.5 682.5 285 707.5C311.5 732.5 341 731.5 341 731.5C341 731.5 371 733 397.5 713.5C413.028 702.074 420.451 676.933 434 655C443.573 639.503 458.458 626.972 471.5 616C503 589.5 530.879 578.323 543 571C567 556.5 612 528.5 629 498.5C646 468.5 643 445 643 427.5Z" fill="#9E78F0" />
<ns0:path xmlns:ns0="http://www.w3.org/2000/svg" d="M444 264.5L450.5 291.5C450.5 291.5 478 272.5 527.5 258C577 243.5 611.5 247 611.5 247L606 219.5C606 219.5 580 213.5 521.5 230.5C463 247.5 444 264.5 444 264.5Z" fill="#B594FC" />
<ns0:path xmlns:ns0="http://www.w3.org/2000/svg" d="M434.5 212C431.5 222 439.5 245 439.5 245C439.5 245 469 225.027 518.5 210.527C568 196.027 602.5 199.5 602.5 199.5C602.5 199.5 600.5 167.5 590.5 164C580.5 160.5 565.5 156 508.5 173.5C451.5 191 437.5 202 434.5 212Z" fill="#C7B0F8" />
</svg>